#!OML:ASF I:\Actors\actors\Patient Classification 1\Patient 1\Session 1\Subject1.ASF
:FULLY-SPECIFIED
:DEGREES
639
root 0.502068 17.5372 9.31102 3.18734 9.2164 -7.94555
lowerback 2.70894 -8.0804 0.0821319
upperback -4.18548 -10.6306 4.17548
thorax -5.07087 -5.20972 4.98066
lowerneck -7.45146 -11.841 -10.6741
upperneck 38.0483 -18.0851 4.71798
head 16.3753 -8.76022 0.784542
rclavicle 2.85194e-014 -3.52843e-015
rhumerus -74.6492 38.1428 -98.0098
rradius 95.5784
rwrist -5.2195
rhand -5.08669 -26.2184
rfingers 7.12502
rthumb 20.7101 -55.1334
lclavicle 2.85194e-014 -3.52843e-015
lhumerus -111.903 -79.9753 204.12
lradius 62.7374
lwrist 31.4817
lhand -9.09796 -24.0004
lfingers 7.12502
lthumb 16.8521 5.28836
rfemur -1.77055 17.5259 27.6311
rtibia 11.5248
rfoot -16.4236 -27.0302
rtoes 4.32657
lfemur 5.78594 -35.6885 -11.4999
ltibia -3.30385
lfoot -9.46514 34.0545
ltoes -13.5419
640
root 0.50431 17.5373 9.30856 3.18426 9.15553 -7.92069
lowerback 2.71348 -8.03816 0.0919943
upperback -4.1509 -10.5742 4.16899
thorax -5.04421 -5.18294 4.96298
lowerneck -7.76963 -11.7965 -10.5576
upperneck 38.0837 -18.0164 4.7269
head 16.4464 -8.69885 0.760364
rclavicle -1.84714e-014 -1.78409e-014
rhumerus -74.6411 37.9792 -97.9404
rradius 95.4874
rwrist -1.05528
rhand -10.6524 -24.01
rfingers 7.12502
rthumb 15.3553 -53.4198
lclavicle -1.84714e-014 -1.78409e-014
lhumerus -112.295 -79.9365 204.552
lradius 62.7722
lwrist 31.2352
lhand -9.11392 -24.1112
lfingers 7.12502
lthumb 16.8368 5.17882
rfemur -1.76993 17.5825 27.6004
rtibia 11.5324
rfoot -16.413 -27.056
rtoes 4.19148
lfemur 5.80022 -35.5096 -11.4911
ltibia -3.36882
lfoot -9.48396 33.9178
ltoes -13.2787
641
root 0.507088 17.5367 9.30619 3.18606 9.12205 -7.90709
lowerback 2.68934 -7.99735 0.196985
upperback -4.11559 -10.5162 4.1196
thorax -5.02573 -5.15924 4.84738
lowerneck -8.16385 -11.7685 -10.3563
upperneck 38.1761 -17.9416 4.60784
head 16.5354 -8.63551 0.664645
rclavicle 1.64091e-014 4.20927e-014
rhumerus -74.5267 37.6868 -97.8101
rradius 95.3948
rwrist 3.71289
rhand -14.1031 -22.7929
rfingers 7.12502
rthumb 12.0297 -52.4271
lclavicle 1.64091e-014 4.20927e-014
lhumerus -112.548 -79.8571 204.794
lradius 62.8005
lwrist 31.047
lhand -9.21154 -24.2929
lfingers 7.12502
lthumb 16.7428 5.00516
rfemur -1.75197 17.6369 27.5848
rtibia 11.4981
rfoot -16.43 -27.0974
rtoes 4.1988
lfemur 5.78438 -35.4004 -11.4795
ltibia -3.38706
lfoot -9.57199 33.815
ltoes -12.9707
642
root 0.511136 17.5364 9.30167 3.2174 9.10653 -7.89214
lowerback 2.67229 -7.96983 0.320532
upperback -4.11412 -10.4742 4.07338
thorax -5.04824 -5.14283 4.73122
lowerneck -8.53128 -11.7077 -10.0761
upperneck 38.2138 -17.8157 4.4561
head 16.5682 -8.54742 0.558017
rclavicle 3.13117e-014 -5.86912e-014
rhumerus -74.3724 37.207 -97.5249
rradius 95.4296
rwrist 9.03121
rhand -16.2009 -21.9312
rfingers 7.12502
rthumb 10.0063 -51.6734
lclavicle 3.13117e-014 -5.86912e-014
lhumerus -112.472 -79.7613 204.71
lradius 62.8044
lwrist 30.8008
lhand -8.52017 -24.4051
lfingers 7.12502
lthumb 17.4083 4.83536
rfemur -1.78199 17.6699 27.5503
rtibia 11.4815
rfoot -16.4654 -27.1311
rtoes 4.37697
lfemur 5.70683 -35.3118 -11.4523
ltibia -3.37558
lfoot -9.61711 33.723
ltoes -12.9664
643
root 0.515354 17.5368 9.29638 3.25497 9.07394 -7.87741
lowerback 2.682 -7.95424 0.399259
upperback -4.12807 -10.4491 4.04905
thorax -5.0887 -5.13242 4.66758
lowerneck -8.69212 -11.4641 -9.77873
upperneck 37.9768 -17.4566 4.4868
head 16.4053 -8.35278 0.595757
rclavicle -6.37664e-014 8.61732e-014
rhumerus -74.4583 36.7229 -97.4954
rradius 95.6903
rwrist 14.2845
rhand -17.7651 -22.4087
rfingers 7.12502
rthumb 8.49704 -52.2178
lclavicle -6.37664e-014 8.61732e-014
lhumerus -112.067 -79.6784 204.301
lradius 62.775
lwrist 30.6144
lhand -6.02368 -24.391
lfingers 7.12502
lthumb 19.8096 4.61947
rfemur -1.83788 17.7325 27.5089
rtibia 11.492
rfoot -16.5164 -27.167
rtoes 4.58506
lfemur 5.64637 -35.1773 -11.4089
ltibia -3.42056
lfoot -9.61905 33.6074
ltoes -12.9255
644
root 0.518242 17.5374 9.29389 3.24665 9.04507 -7.91406
lowerback 2.68644 -7.94857 0.492787
upperback -4.11309 -10.4369 4.03388
thorax -5.09575 -5.12982 4.60207
lowerneck -8.45359 -10.9589 -9.42626
upperneck 37.2138 -16.7274 4.70618
head 15.8587 -7.99943 0.815936
rclavicle -4.82829e-014 3.05134e-014
rhumerus -74.3549 36.386 -97.3541
rradius 95.8906
rwrist 16.9777
rhand -18.2645 -23.0534
rfingers 7.12502
rthumb 8.01505 -52.8815
lclavicle -4.82829e-014 3.05134e-014
lhumerus -111.507 -79.6235 203.721
lradius 62.7109
lwrist 30.5225
lhand -8.95776 -24.5854
lfingers 7.12502
lthumb 16.9871 4.6918
rfemur -1.82833 17.7838 27.5445
rtibia 11.4748
rfoot -16.5531 -27.1731
rtoes 4.71679
lfemur 5.69053 -35.1285 -11.3685
ltibia -3.49346
lfoot -9.62942 33.5623
ltoes -12.7277
645
root 0.520659 17.5382 9.29194 3.24793 9.03903 -7.93246
lowerback 2.67255 -7.9562 0.546542
upperback -4.10723 -10.4448 4.02354
thorax -5.09273 -5.13602 4.56117
lowerneck -8.74833 -10.8115 -9.16841
upperneck 37.1527 -16.521 4.70282
head 15.8422 -7.86816 0.797304
rclavicle -4.436e-014 -4.57205e-015
rhumerus -74.2565 36.2381 -97.2521
rradius 95.9833
rwrist 18.1994
rhand -17.8657 -24.2734
rfingers 7.12502
rthumb 8.39997 -54.0864
lclavicle -4.436e-014 -4.57205e-015
lhumerus -111.232 -79.6126 203.437
lradius 62.6434
lwrist 30.49
lhand -9.83738 -24.6215
lfingers 7.12502
lthumb 16.1402 4.7265
rfemur -1.81395 17.8402 27.5631
rtibia 11.4447
rfoot -16.6107 -27.1964
rtoes 5.15131
lfemur 5.70862 -35.1737 -11.3691
ltibia -3.50611
lfoot -9.64149 33.5852
ltoes -12.5954
646
root 0.524036 17.5383 9.28876 3.27283 9.03623 -7.89945
lowerback 2.66219 -7.96679 0.564127
upperback -4.13182 -10.4587 3.9992
thorax -5.11954 -5.14319 4.52915
lowerneck -8.92609 -10.679 -9.02773
upperneck 37.0238 -16.3242 4.73242
head 15.7843 -7.7584 0.817047
rclavicle -1.01691e-014 1.04362e-015
rhumerus -74.2994 36.1401 -97.2601
rradius 96.0531
rwrist 19.1305
rhand -19.3944 -23.8192
rfingers 7.12502
rthumb 6.92447 -53.686
lclavicle -1.01691e-014 1.04362e-015
lhumerus -111.529 -79.5958 203.738
lradius 62.6059
lwrist 30.4852
lhand -9.7949 -24.5385
lfingers 7.12502
lthumb 16.1811 4.8061
rfemur -1.83703 17.8662 27.5048
rtibia 11.438
rfoot -16.6437 -27.2284
rtoes 5.44086
lfemur 5.69083 -35.2852 -11.4383
ltibia -3.48239
lfoot -9.72675 33.6792
ltoes -12.3505
647
root 0.527013 17.5374 9.28547 3.2803 9.02293 -7.89909
lowerback 2.66105 -7.96271 0.622722
upperback -4.15612 -10.4503 3.97398
thorax -5.1602 -5.14044 4.47533
lowerneck -9.06546 -10.5764 -8.92065
upperneck 36.8924 -16.1545 4.72645
head 15.7192 -7.67051 0.82437
rclavicle -1.50828e-014 1.39149e-014
rhumerus -74.385 35.9827 -97.3135
rradius 96.1125
rwrist 19.9146
rhand -19.2394 -23.5498
rfingers 7.12502
rthumb 7.07407 -53.4116
lclavicle -1.50828e-014 1.39149e-014
lhumerus -112.415 -79.5456 204.628
lradius 62.5935
lwrist 30.4303
lhand -9.80453 -24.5958
lfingers 7.12502
lthumb 16.1719 4.74957
rfemur -1.85988 17.835 27.4823
rtibia 11.4471
rfoot -16.5728 -27.2225
rtoes 5.02652
lfemur 5.67891 -35.3345 -11.4624
ltibia -3.46267
lfoot -9.81059 33.7395
ltoes -12.1525
648
root 0.528355 17.5364 9.28217 3.28817 9.00795 -7.90376
lowerback 2.66689 -7.94907 0.659791
upperback -4.17933 -10.4296 3.96142
thorax -5.19821 -5.13072 4.44586
lowerneck -9.18837 -10.5073 -8.77051
upperneck 36.6931 -16.0045 4.63629
head 15.6032 -7.59761 0.78924
rclavicle 8.44835e-016 -2.29596e-014
rhumerus -74.5 35.8109 -97.4338
rradius 96.2074
rwrist 20.2657
rhand -20.1 -23.9538
rfingers 7.12502
rthumb 6.24332 -53.8418
lclavicle 8.44835e-016 -2.29596e-014
lhumerus -113.364 -79.484 205.596
lradius 62.578
lwrist 30.2757
lhand -9.71158 -24.6746
lfingers 7.12502
lthumb 16.2614 4.6635
rfemur -1.87808 17.8407 27.475
rtibia 11.433
rfoot -16.4666 -27.2288
rtoes 4.61638
lfemur 5.65243 -35.3406 -11.4538
ltibia -3.44582
lfoot -9.76207 33.7595
ltoes -12.2947
649
root 0.529668 17.5353 9.27872 3.30856 8.99595 -7.86133
lowerback 2.67461 -7.93799 0.656884
upperback -4.2118 -10.4148 3.94212
thorax -5.24077 -5.12236 4.43191
lowerneck -9.35992 -10.442 -8.70122
upperneck 36.581 -15.8654 4.58127
head 15.5582 -7.53177 0.773534
rclavicle 1.91082e-014 -5.26779e-015
rhumerus -74.7785 35.6866 -97.7568
rradius 96.3646
rwrist 19.5899
rhand -19.3536 -24.6704
rfingers 7.12502
rthumb 6.9638 -54.5359
lclavicle 1.91082e-014 -5.26779e-015
lhumerus -113.448 -79.3974 205.717
lradius 62.5375
lwrist 29.9447
lhand -9.42705 -24.7145
lfingers 7.12502
lthumb 16.5353 4.60097
rfemur -1.90852 17.861 27.4047
rtibia 11.4177
rfoot -16.4604 -27.2213
rtoes 4.74829
lfemur 5.63939 -35.4147 -11.5186
ltibia -3.43735
lfoot -9.62322 33.8317
ltoes -12.653
650
root 0.531365 17.5342 9.27506 3.29721 8.96224 -7.81018
lowerback 2.71371 -7.93299 0.652135
upperback -4.23404 -10.4075 3.92732
thorax -5.28868 -5.11742 4.42791
lowerneck -9.6643 -10.3764 -8.72444
upperneck 36.6973 -15.7151 4.4974
head 15.665 -7.46784 0.748642
rclavicle 6.26047e-014 -3.85145e-014
rhumerus -75.1019 35.764 -98.2401
rradius 96.7729
rwrist 15.726
rhand -15.7032 -25.7467
rfingers 7.12502
rthumb 10.4865 -55.4652
lclavicle 6.26047e-014 -3.85145e-014
lhumerus -112.843 -79.3161 205.15
lradius 62.5001
lwrist 29.5532
lhand -9.06685 -24.878
lfingers 7.12502
lthumb 16.8821 4.40824
rfemur -1.92131 17.8421 27.3267
rtibia 11.4441
rfoot -16.5164 -27.1667
rtoes 4.88558
lfemur 5.69428 -35.4946 -11.6326
ltibia -3.45788
lfoot -9.58563 33.9311
ltoes -12.7626
651
root 0.532362 17.5346 9.27116 3.25953 8.89377 -7.77525
lowerback 2.79968 -7.92638 0.6692
upperback -4.24888 -10.3956 3.91709
thorax -5.35866 -5.1103 4.42388
lowerneck -9.97184 -10.3037 -8.68809
upperneck 36.796 -15.5316 4.33051
head 15.7444 -7.39358 0.68727
rclavicle 2.22577e-014 -2.24627e-014
rhumerus -75.2223 35.9292 -98.6383
rradius 97.7369
rwrist 7.00077
rhand -8.2896 -28.4718
rfingers 7.12502
rthumb 17.6302 -57.6925
lclavicle 2.22577e-014 -2.24627e-014
lhumerus -112.509 -79.2439 204.819
lradius 62.5184
lwrist 29.3691
lhand -8.78191 -24.8886
lfingers 7.12502
lthumb 17.1564 4.37395
rfemur -1.90545 17.8588 27.2852
rtibia 11.4807
rfoot -16.5499 -27.1153
rtoes 4.88462
lfemur 5.7842 -35.5256 -11.7312
ltibia -3.49139
lfoot -9.65458 34.0173
ltoes -12.5981
